<?xml version="1.0" encoding="UTF-8"?>
<svg id="Layer_1" xmlns="http://www.w3.org/2000/svg" version="1.1" viewBox="0 0 427.3 85.6">
  <!-- Generator: Adobe Illustrator 29.0.1, SVG Export Plug-In . SVG Version: 2.1.0 Build 192)  -->
  <defs>
    <style>
      .st0 {
        fill: #ff6700;
      }

      .st1 {
        fill: #fff;
      }

      .st2 {
        fill: #ff0019;
      }
    </style>
  </defs>
  <g id="Camada_2">
    <g id="Camada_1-2">
      <g id="Camada_2-2">
        <g id="Camada_1-2-2">
          <rect class="st2" x="346.7" y="19.9" width="64.7" height="64.7"/>
          <path class="st0" d="M380.6,50.5V3.8h23.1c13,0,23.6,10.6,23.6,23.6h0v23.1h-46.7Z"/>
        </g>
      </g>
      <path class="st1" d="M14.5,82.5c-4-1.7-7.6-4.4-10.3-7.8-2.5-3.2-3.9-7.1-4.2-11.1h19.3c.2,2.2,1.3,4.1,3.1,5.4,1.9,1.4,4.3,2.2,6.7,2.1,2,.1,3.9-.4,5.6-1.4,1.2-.8,2-2.2,2-3.7,0-1.8-1.2-3.4-2.9-4-3-1.2-6.1-2.2-9.2-2.9-3.9-.9-7.7-2-11.4-3.4-3.1-1.2-5.8-3.1-7.9-5.6-2.2-2.5-3.3-6-3.3-10.3,0-3.6,1-7,3-10,2.2-3.2,5.3-5.6,8.9-7.1,4.4-1.8,9.2-2.7,14-2.6,8,0,14.3,2,18.9,5.9,4.6,4,7.4,9.6,7.9,15.7h-18c-.2-2.1-1.3-3.9-2.9-5.2-1.9-1.3-4.1-2-6.4-1.9-1.8-.1-3.7.3-5.2,1.3-1.2.8-1.8,2.2-1.8,3.6,0,1.8,1.2,3.5,2.9,4.1,2.9,1.2,6,2.1,9.1,2.7,3.9.9,7.8,2.1,11.5,3.6,3,1.2,5.7,3.2,7.8,5.7,2.2,2.6,3.4,6.1,3.5,10.6,0,3.6-1,7.1-3.1,10-2.3,3.1-5.4,5.5-9,6.9-4.3,1.8-8.9,2.6-13.6,2.5-5.1-.1-10.2-1.2-15-3.1Z"/>
      <path class="st1" d="M121,57.3h-44.1c.3,4,1.6,7,3.8,9.1,2.2,2.1,5.2,3.2,8.3,3.1,4.9,0,8.2-2.1,10.2-6.2h20.8c-1.1,4.1-3.1,8-5.8,11.3-2.9,3.4-6.4,6.1-10.4,7.9-4.4,2-9.2,2.9-14,2.9-5.8.1-11.6-1.3-16.7-4-4.8-2.6-8.8-6.6-11.4-11.4-2.8-5.3-4.2-11.3-4.1-17.3-.2-6,1.2-12,4-17.3,2.6-4.8,6.5-8.7,11.3-11.4,5.2-2.7,11-4.1,16.8-4,5.7-.1,11.4,1.2,16.4,3.9,4.7,2.5,8.6,6.4,11.2,11.1,2.8,5.2,4.1,10.9,4,16.8,0,1.6-.1,3.5-.3,5.5ZM101.4,46.4c.1-3-1.1-6-3.4-8-4.9-4-11.9-4-16.9,0-2.3,2.1-3.8,5-4.2,8.1h24.5Z"/>
      <path class="st1" d="M154,23.1c3.5-2,7.4-3.1,11.4-3v20.6h-5.4c-4.9,0-8.5,1-11,3.1s-3.7,5.8-3.7,11v29.5h-19.5V20.8h19.5v10.6c2.2-3.4,5.2-6.2,8.7-8.3Z"/>
      <path class="st1" d="M197.6,66.1l13.9-45.3h20.8l-22.6,63.6h-24.1l-22.6-63.6h20.9l13.7,45.3Z"/>
      <path class="st1" d="M254.2,0v84.4h-19.5V0h19.5Z"/>
      <path class="st1" d="M262.5,35.2c2.3-4.7,5.7-8.6,10.1-11.4,4.3-2.7,9.2-4.1,14.3-4,4.1,0,8.2.8,11.8,2.7,3.2,1.6,5.9,4.1,7.8,7.2v-9h19.5v63.6h-19.5v-9c-1.9,3.1-4.7,5.5-7.9,7.2-3.6,1.9-7.7,2.8-11.8,2.7-5,0-9.9-1.3-14.1-4-4.4-2.8-7.9-6.8-10.1-11.5-2.6-5.4-3.8-11.3-3.7-17.3-.2-5.9,1-11.8,3.6-17.2ZM302.4,41.1c-5.3-5.5-14-5.6-19.5-.3-.1.1-.2.2-.3.3-2.7,2.8-4,6.6-4,11.5s1.3,8.7,4,11.6c2.5,2.8,6.1,4.4,9.9,4.3,3.7,0,7.3-1.5,9.9-4.2,2.7-2.8,4-6.7,4-11.5.1-5.1-1.3-8.9-4-11.7Z"/>
    </g>
  </g>
</svg>